<?xml version="1.0" encoding="UTF-8" standalone="no"?>
<!-- Created with Inkscape (http://www.inkscape.org/) -->

<svg
   version="1.1"
   id="svg1"
   width="1000"
   height="800"
   viewBox="0 0 1000 800"
   sodipodi:docname="logo.svg"
   inkscape:version="1.4.2 (ebf0e940, 2025-05-08)"
   xmlns:inkscape="http://www.inkscape.org/namespaces/inkscape"
   xmlns:sodipodi="http://sodipodi.sourceforge.net/DTD/sodipodi-0.dtd"
   xmlns="http://www.w3.org/2000/svg"
   xmlns:svg="http://www.w3.org/2000/svg">
  <defs
     id="defs1" />
  <sodipodi:namedview
     id="namedview1"
     pagecolor="#ffffff"
     bordercolor="#000000"
     borderopacity="0.25"
     inkscape:showpageshadow="2"
     inkscape:pageopacity="0.0"
     inkscape:pagecheckerboard="0"
     inkscape:deskcolor="#d1d1d1"
     inkscape:zoom="0.37618838"
     inkscape:cx="447.91389"
     inkscape:cy="385.44518"
     inkscape:window-width="1440"
     inkscape:window-height="847"
     inkscape:window-x="0"
     inkscape:window-y="25"
     inkscape:window-maximized="1"
     inkscape:current-layer="g1" />
  <g
     inkscape:groupmode="layer"
     inkscape:label="Image"
     id="g1"
     transform="translate(5.3164859,-101.01322)">
    <ellipse
       style="fill:#eaeaea;fill-opacity:1;stroke-width:6.55856"
       id="path11"
       cx="462.53424"
       cy="781.52338"
       rx="414.68585"
       ry="63.797825" />
    <path
       style="fill:#e29a8b;fill-opacity:1;stroke-width:5"
       d="m 142.65506,710.27206 31.53428,31.53428 -15.01632,12.01306 3.00326,19.52122 7.50817,16.51795 33.03591,22.52448 60.06529,16.51796 63.06855,3.00326 54.05876,3.00327 33.03591,6.00653 15.01632,9.00979 3.00327,13.51469 -24.02612,-1.50163 -39.04244,-3.00327 -28.53101,6.00653 -46.5506,3.00327 -48.05223,-6.00653 -49.55387,-7.50816 -34.53754,-10.51143 -24.02611,-10.51142 -13.51469,-15.01633 -12.01306,-18.01958 -9.0098,-21.02286 -4.504893,-22.52448 6.006533,-24.02612 21.02285,-25.52774 9.00979,-18.01959 z"
       id="path8" />
    <path
       style="fill:#ffffff;fill-opacity:1;stroke-width:5"
       d="m 411.44724,207.22525 -27.02938,109.61916 54.05876,100.60936 82.58978,-4.5049 48.05223,-9.00979 54.05876,-12.01306 45.04897,-21.02285 19.52122,-12.01306 10.51142,-13.51469 V 319.84767 L 693.75411,301.82808 668.22636,289.81503 635.19045,277.80197 605.1578,261.28401 581.13169,240.26116 552.60067,216.23505 516.5615,195.21219 Z"
       id="path7" />
    <path
       style="fill:#4e4f4e;fill-opacity:1;stroke-width:5"
       d="m 550.12407,430.78499 45.116,34.92851 37.83922,11.64284 39.29458,-14.55355 45.11599,-29.10709 24.74103,-20.37497 29.1071,4.36607 7.27677,17.46425 -7.27677,20.37497 -7.27678,18.91961 -17.46425,11.64284 -20.37497,4.36606 -26.19638,20.37497 -30.56245,24.74103 -20.37497,13.09819 -29.10709,11.64284 -32.0178,5.82142 -33.47316,-2.91071 -33.47316,-8.73213 16.0089,-50.93742 5.82142,-39.29457 z"
       id="path5" />
    <path
       style="fill:#8f867a;fill-opacity:1;stroke-width:5"
       d="m 582.6861,246.44072 c 0,0 -49.03618,-45.59395 -102.33555,-41.76962 -46.48823,3.33562 -69.88238,50.17736 -73.13341,85.59401 -3.34215,36.40928 4.21355,79.39596 41.8062,94.01533 37.59265,14.61936 54.48033,15.53487 65.90363,15.53487 11.42329,0 49.04577,-1.8366 49.04577,-1.8366 l -20.92689,36.10648 v 52.7229 l -14.05944,49.20804 -18.45302,34.26988 -18.45301,21.96787 -21.08916,24.60402 0.87871,35.1486 6.15101,36.90603 10.54458,19.33173 -21.08916,21.08916 -22.84659,3.51486 -26.36145,-40.42089 -110.71808,52.7229 -37.78475,13.18072 -44.81446,-3.51486 -58.8739,-21.08916 -26.36145,-36.90603 -7.02972,-65.0249 1.75743,-45.69318 7.90843,-34.26988 11.4233,-32.51246 14.93815,-29.87631 29.87631,-42.17831 28.11888,-28.9976 28.11888,-25.48273 26.36145,-21.08916 15.81687,-19.33173 14.05944,-35.1486 15.81687,-50.96547 -28.9976,-60.63133 23.72531,-20.21044 57.11647,-6.15101 61.51005,-0.87871 73.81205,14.05944 36.02732,20.21044 z"
       id="path4"
       sodipodi:nodetypes="cssssccccccccccccccccccccccccccccccccccccc" />
    <path
       style="fill:#4e4f4e;fill-opacity:1;stroke-width:5"
       d="m 438.56519,723.63257 c 0,0 19.33615,0.31793 25.16592,-3.92189 5.82976,-4.23983 20.66915,-12.18951 20.66915,-12.18951 l 16.42933,21.19914 39.21841,3.17987 17.48928,11.65952 7.94968,20.13918 -20.66916,6.35974 -9.00963,6.35975 -55.11776,-6.35975 -20.13918,-13.24946 z"
       id="path3" />
    <path
       style="fill:#4e4f4e;fill-opacity:1;stroke-width:5"
       d="m 358.38253,601.15779 28.25955,42.38933 23.12145,46.24291 -43.67385,47.52743 12.84525,34.68218 -6.42263,11.56072 -20.5524,-7.70715 -0.0563,11.81547 -120.6891,-13.09999 5.85558,-24.03394 c 0,0 14.2317,2.24711 24.34369,0.37452 10.112,-1.87259 36.7028,-6.74133 36.7028,-6.74133 l 25.43011,-25.55366 29.51654,-48.81582 z"
       id="path2"
       sodipodi:nodetypes="ccccccccccscccc" />
    <path
       style="fill:#4e4f4e;fill-opacity:1;stroke-width:5"
       d="m 403.40077,221.39303 1.79024,23.86986 c 0,0 -1.79024,6.56422 -5.37072,8.35446 -3.58048,1.79024 -13.12843,2.98373 -13.12843,2.98373 l -51.91696,-28.64384 -37.59504,-14.32192 8.35445,-17.9024 38.78854,-13.72518 31.62757,11.93494 z"
       id="path6" />
    <path
       style="fill:#000000"
       d="m 265.5,872.37745 c -58.18251,-3.1427 -105.72121,-16.89944 -134.53592,-38.93197 -21.3961,-16.36004 -36.988905,-46.01425 -36.956526,-70.28345 0.0251,-18.81473 8.284056,-41.89414 22.300626,-62.31847 3.64479,-5.31104 7.6223,-11.70527 8.8389,-14.20939 2.18018,-4.48748 2.19154,-4.73686 0.78994,-17.34356 -1.95629,-17.59587 -1.68586,-54.88418 0.52066,-71.79061 7.68313,-58.86859 30.08302,-109.60183 68.65681,-155.5 12.45398,-14.81873 33.72637,-35.59473 56.27394,-54.96079 19.3194,-16.59338 29.13189,-26.26334 36.08926,-35.56502 6.57717,-8.79338 13.83814,-23.50142 18.00634,-36.47419 2.03224,-6.325 4.77596,-14.84332 6.09715,-18.9296 l 2.40217,-7.42959 -4.21574,-3.57041 c -10.55587,-8.94002 -16.7193,-16.1689 -20.73902,-24.3241 -8.6781,-17.60615 -9.08728,-35.40319 -1.19921,-52.15874 7.55998,-16.05864 24.14318,-28.51143 41.41802,-31.10195 3.99892,-0.59968 4.53693,-1.0555 7.16081,-6.06705 8.691,-16.5996 32.16996,-28.60857 53.0061,-27.11146 16.17313,1.16206 29.06579,7.26603 41.30796,19.55707 l 7.3349,7.36418 18.72142,0.25887 c 20.75419,0.28699 28.88117,1.63941 47.70739,7.93906 23.38544,7.82525 39.64828,18.36486 65.51402,42.45824 32.73757,30.49434 58.18211,45.49463 110.5,65.14289 12.1,4.54422 23.125,8.95401 24.5,9.79955 18.2108,11.19839 17.7778,35.93907 -0.9874,56.41798 -9.99681,10.90976 -18.53603,16.51804 -45.01442,29.56402 -32.86635,16.19334 -50.87911,22.19349 -81.49818,27.14752 -7.15,1.15684 -15.1375,2.58477 -17.75,3.17317 -4.57755,1.03099 -4.75,1.19917 -4.75,4.63223 0,6.93854 6.61328,13.78968 30,33.66065 3.54778,3.01444 5.31249,3.91516 11.13639,6.4719 11.74787,5.30206 20.33738,7.24564 34.58653,7.82604 11.39513,0.46414 14.56011,0.22959 22.89669,-1.69681 16.51873,-3.81714 31.06805,-12.59329 52.07502,-31.41165 10.59705,-9.493 19.98023,-15.90431 27.91967,-19.07686 4.46971,-1.78607 6.31142,-3.15583 7.65524,-5.69352 0.97324,-1.8379 11.18555,-41.14163 22.69402,-87.34163 25.39454,-101.94475 25.59158,-102.68581 27.71878,-104.25 2.19332,-1.61281 7.77324,-1.61281 9.10476,0 1.06436,1.2892 40.76738,69.55028 72.3144,124.32954 10.02832,17.4135 17.8985,32.16973 17.8985,33.55887 0,1.36363 -0.5625,3.18573 -1.25,4.04911 -0.6875,0.86337 -23.75,12.92743 -51.25,26.80902 -27.5,13.88158 -50.5625,25.69129 -51.25,26.2438 -0.6875,0.5525 -1.25781,2.18695 -1.26736,3.6321 -0.0793,11.99882 -9.98858,34.4795 -20.02738,45.43508 -9.46335,10.32758 -19.06003,15.55258 -32.51218,17.70157 -8.95103,1.42994 -10.45085,2.32833 -22.15764,13.27244 -18.08487,16.90667 -34.65278,29.41903 -52.43753,39.60171 -21.76437,12.4612 -48.46744,20.81758 -72.34791,22.64031 -16.11246,1.22983 -43.97469,-1.75521 -58.25506,-6.24118 -5.05739,-1.58871 -3.33666,-0.99042 -7.31658,1.57877 -3.63003,3.88116 -3.29221,5.82839 -5.30696,8.41873 -4.23928,5.45041 -8.47048,10.00776 -16.03062,20.27965 -6.7585,8.29718 -11.39788,10.86783 -16.35539,17.98019 -3.35799,4.81759 -7.34967,5.45288 -6.53957,13.1141 0.56313,5.32566 0.3454,8.74161 1.42403,13.19982 1.07864,4.45821 1.47105,10.55002 1.57709,11.88247 2.14929,27.00603 5.5037,37.27377 11.48813,47.42128 5.98443,10.14751 14.59889,20.1748 15.49926,20.63993 0.99862,0.51588 7.23485,1.17581 13.8583,1.46651 19.66743,0.8632 36.27903,7.51816 44.70831,17.91109 6.82508,8.41503 9.50018,16.32193 7.73719,22.86915 -2.08431,7.74054 -13.28116,13.76078 -23.31439,12.5355 -4.95997,-0.60572 -5.24209,-0.51033 -6.82799,2.30852 -3.93184,6.98862 -8.53496,7.60748 -31.34575,4.21419 -15.51249,-2.30761 -25.58712,-4.83928 -33.91645,-8.5229 -7.04557,-3.11589 -11.76992,-7.05996 -12.92087,-7.88171 -0.71359,-0.50949 -2.31444,-1.71526 -2.92313,-2.24525 -1.98453,-1.72793 -18.61858,-18.14547 -30.73955,-35.41133 -6.325,-9.00972 -12.625,-17.67901 -14,-19.26509 l -2.5,-2.88378 -5.5,5.06424 c -3.025,2.78533 -8.82185,7.64709 -12.88189,10.8039 -4.06004,3.15681 -8.56004,6.75403 -10,7.99384 l -2.61811,2.25418 2.66256,-1.31514 c 3.7013,-1.82821 31.6419,-2.93264 36.61457,1.70784 2.31902,2.1641 1.25767,5.61346 5.67915,8.62601 4.42147,3.01254 8.44302,6.49331 10.06738,9.92693 7.06158,14.92697 -16.0712,17.36668 -43.71013,14.71151 l -8.68646,-0.83447 0.56151,5.44056 c 0.58285,5.64721 -1.12519,13.19462 -2.75772,12.18566 -0.49937,-0.30863 -0.65766,0.0911 -0.35175,0.8883 0.34585,0.90127 -0.8629,2.52823 -3.19613,4.30193 -3.4998,2.66052 -4.32691,2.84201 -12.28941,2.69659 -7.3775,-0.13473 -8.71894,0.10374 -9.87603,1.75571 -1.93611,2.76419 -6.57953,4.9002 -10.65244,4.9002 -1.94381,0 -10.17866,-1.32977 -18.29965,-2.95505 -17.76802,-3.55596 -32.69279,-5.54042 -52.76545,-7.01589 -41.37985,-3.04171 -43.73382,-3.53585 -48.85997,-10.25658 -2.31842,-3.03962 -5.05041,-12.02877 -3.98085,-13.09833 1.13188,-1.13188 -3.39296,-2.59782 -14.15918,-4.58723 -6.6,-1.21957 -17.38931,-3.97469 -23.97625,-6.12249 l -11.97625,-3.90509 -2.756,2.64041 c -4.11494,3.94237 -6.18062,10.24109 -5.5051,16.78628 2.02566,19.62671 26.16993,35.96378 68.7136,46.49461 25.86096,6.40136 51.98648,9.146 100,10.5056 54.58929,1.5458 85.32804,7.78093 98.92679,20.06658 7.01495,6.33759 9.03419,14.71875 5.10049,21.17034 -3.09323,5.07316 -5.43997,5.22947 -27.02728,1.80014 -12.95435,-2.05791 -34.54449,-1.88125 -64,0.52368 -23.33745,1.90541 -66.51281,3.14 -81.5,2.33047 z M 403,866.61663 c 0,-0.21085 -0.90062,-0.61888 -2.00138,-0.90674 -1.10076,-0.28785 -1.7492,-0.11534 -1.44098,0.38337 0.53825,0.87091 3.44236,1.31244 3.44236,0.52337 z m -94.5,-9.02614 c 10.45,-0.29005 27.55,-1.28935 38,-2.22068 30.49508,-2.71779 63.24718,-2.15386 74.87523,1.2892 3.53174,1.04575 0.52692,-1.81476 -4.01833,-3.82534 -14.82145,-6.55623 -38.49238,-9.64152 -94.41075,-12.30558 -36.32775,-1.73073 -42.12724,-2.14117 -58.44615,-4.13632 -34.49329,-4.21716 -64.37952,-12.97135 -83.94481,-24.58886 -9.11627,-5.41306 -21.26537,-17.59863 -25.2272,-25.30291 -5.91351,-11.49954 -6.57906,-20.64404 -2.38892,-32.82291 1.08264,-3.14673 3.3953,-7.70822 5.13926,-10.13664 l 3.17084,-4.41531 -6.11109,-5.65779 c -6.80086,-6.29639 -13.75434,-16.14732 -18.00009,-25.50052 l -2.80378,-6.17661 -2.99323,3.85489 c -7.05697,9.08846 -14.87014,24.10913 -18.91042,36.35489 -2.39118,7.24747 -2.81372,10.1946 -2.86749,20 -0.0552,10.06516 0.28352,12.50901 2.7148,19.58709 3.08952,8.99439 10.33712,21.43207 16.69215,28.64558 2.43317,2.76185 3.86785,5.22065 3.4452,5.90451 -0.45133,0.73027 -0.29122,0.90422 0.42491,0.46163 0.64613,-0.39934 2.57408,0.64692 4.4045,2.39023 15.88588,15.12984 50.73967,28.6765 89.94476,34.95892 14.57535,2.33563 54.32947,5.18655 60.81061,4.36097 0.825,-0.1051 10.05,-0.42839 20.5,-0.71844 z m 41.75003,-73.62165 c -1.2375,-0.49742 -2.25,-1.37895 -2.25,-1.95896 0,-1.8521 -8.28157,-10.11501 -11.95505,-11.92811 -1.94972,-0.96232 -6.24495,-2.32448 -9.54495,-3.02704 -9.04159,-1.92491 -10.6762,-3.87801 -5.49012,-6.55984 9.10525,-4.70851 23.09109,-1.80551 35.74012,7.41845 2.95006,2.15125 9.12421,11.01817 11.04538,10.20052 2.00458,-0.85315 3.69503,-0.6943 4.27352,-2.36386 0.47766,-1.37855 0.22475,-2.41764 0.41523,-3.84476 0.22278,-1.66908 -0.59635,-3.51596 -2.04731,-5.38042 -2.48829,-3.19741 -3.15009,-3.84951 -5.54146,-6.15296 -3.18466,-3.41219 -8.13461,-5.86016 -15.95534,-7.89062 -9.66304,-2.50878 -11.54939,-2.6552 -36.44002,-2.82852 -12.65,-0.0881 -23.5625,-0.52254 -24.25,-0.96546 -2.08271,-1.34176 -1.42026,-3.31803 2,-5.96663 1.7875,-1.38421 4.2146,-3.43552 5.39355,-4.55847 1.02398,-0.5738 2.14622,-1.03555 3.00503,-1.83569 1.59372,-1.48485 10.82985,-11.29639 13.13886,-13.73182 4.27063,-4.45206 9.9311,-11.13364 12.57882,-14.84796 2.70752,-3.79822 7.87009,-11.59967 9.10975,-13.70718 12.47713,-20.53957 18.52294,-41.96174 18.6378,-66.03951 0.13706,-28.72991 -9.20096,-48.1561 -31.04346,-64.58075 -9.58592,-7.20822 -15.41811,-9.76227 -28.57034,-12.51161 -21.97826,-4.59434 -49.61503,-0.4478 -74.38725,11.16086 -4.63543,2.17224 -8.56916,3.80842 -8.74162,3.63596 -0.69898,-0.69898 10.12572,-10.95769 15.92474,-15.09209 10.74866,-7.66322 22.48593,-12.9045 35.20413,-15.7204 9.59736,-2.12493 30.38371,-1.61549 40,0.98032 13.27477,3.58338 32.43816,13.80071 30.8138,16.42898 -0.35321,0.57151 -0.12372,0.69929 0.53015,0.29517 1.88592,-1.16556 13.58656,10.78866 20.86797,21.32023 0.97621,1.41195 0.86852,-1.36825 -0.30665,-7.91667 -1.76815,-9.85274 -4.41491,-33.08165 -4.36916,-38.34538 0.0333,-3.83442 0.38869,-3.26832 4.61099,7.34538 2.51618,6.325 9.17518,25 14.79776,41.5 5.62258,16.5 11.15941,31.70984 11.92035,33.94713 2.54606,7.48582 6.56547,15.67313 10.78743,24.81188 3.79029,8.17336 12.11206,23.83993 14.23005,27.51457 6.72023,11.85026 21.86898,33.64773 37.81106,54.40615 4.78157,6.22615 10.82917,14.19524 13.43912,17.70909 17.65509,23.76955 34.53943,29.88187 46.17994,31.62434 1.47796,0.22123 3.81219,0.60635 5.18719,0.85582 1.375,0.24947 4.75,0.77791 7.5,1.17433 2.75,0.39641 5.9,0.88163 7,1.07827 6.75723,1.20791 11.49936,1.5208 11.49522,0.75847 -0.01,-1.76033 -6.99755,-8.43332 -11.79142,-11.25988 -5.14187,-3.03176 -7.46119,-3.71627 -15.68468,-4.62906 -8.16704,-0.90653 -8.56712,-3.72355 -0.97333,-6.85344 3.61711,-1.49085 6.17068,-1.76131 12.80154,-1.35589 10.46616,0.63992 18.95542,4.39502 26.31136,11.63844 5.13147,5.05297 7.11532,5.78301 12.09131,4.44949 6.52069,-1.74747 -0.89635,-13.29471 -12.25,-19.07145 -9.15611,-4.65862 -14.13832,-5.82936 -29,-6.81454 -4.95,-0.32813 -10.5908,-1.01251 -12.53511,-1.52084 -7.25053,-1.89562 -16.43896,-14.92621 -24.0055,-34.04345 C 473.22692,688.9626 464.19189,649.34179 460.87495,626 c -2.00184,-14.08724 -1.45879,-47.49173 1.17862,-72.5 2.376,-22.52956 3.27984,-58.98776 1.69819,-68.5 -0.97076,-5.83831 0.13329,-3.89215 4.53837,8 7.00924,18.92244 9.61078,40.7278 7.63568,64 -0.68518,8.07333 -1.59,23.2415 -2.30517,40.75 -0.16171,3.95886 -0.70502,1.39023 0.64755,6.62683 0.74746,0.15209 4.51767,-4.15035 4.41623,-4.48445 -0.10143,-0.33419 2.76704,-3.93419 6.37438,-8 3.60733,-4.06581 7.72972,-9.14626 9.36125,-11.13264 3.83071,-4.66386 4.91265,-6.62293 8.46106,-12.4713 11.22635,-18.10059 20.5945,-40.41237 25.97407,-61.86146 5.46489,-21.78922 7.68343,-37.76225 9.59061,-69.05029 1.46973,-24.11154 2.47381,-28.23555 8.17421,-33.57364 4.29981,-4.02652 8.82001,-5.53425 23.19893,-7.73809 7.16795,-1.09863 18.12853,-3.1696 24.35685,-4.60216 C 608.16548,388.24506 630,381.22639 630,379.94717 630,379.42622 627.6526,379 624.78355,379 c -8.26378,0 -32.91084,-2.08049 -37.03355,-3.12605 -3.42186,-0.86782 -4.20974,-5.61944 -4.20974,-8.75696 0,-5.9001 3.41208,-2.61888 19.41397,-2.60658 7.45017,0.006 20.54848,0.41017 29.10734,0.89878 17.19616,0.98169 24.4279,-0.0668 35.79284,-4.03663 6.97802,-2.43744 4.61487,-1.01884 9.90418,-4.93711 3.66087,-2.38143 13.2129,-10.7617 13.22879,-11.60599 0.007,-0.3688 -1.28461,-0.95547 -2.87012,-1.3037 -4.10454,-0.90151 -10.58299,-6.79066 -13.02935,-11.84416 -4.32902,-8.94257 -1.60908,-24.21266 4.8765,-27.37731 2.31729,-1.13072 2.34714,-1.24335 0.5,-1.88672 -33.15666,-11.54862 -62.61538,-25.4709 -83.49957,-39.46216 C 583.20118,253.73452 576.26973,247.99285 553,226.53714 527.86656,203.363 488.22488,187.83908 450.5,186.39751 c -13.22133,-0.50522 -16.71938,-0.27192 -29.5,1.96749 -7.975,1.39737 -16.88065,3.25972 -19.79034,4.13856 l -5.29034,1.59788 4.17899,4.69928 c 2.29845,2.5846 5.68477,7.84928 7.52515,11.69928 5.13763,10.74768 6.09295,18.49724 3.31958,26.92819 C 409.781,240.96073 404.09507,250 403.03505,250 c -0.41606,0 -1.01359,-2.17098 -1.32785,-4.8244 -1.44992,-12.24229 -8.35456,-25.69354 -17.99177,-35.0506 C 366.97123,193.86757 339.8102,186.73978 323,194.19162 c -6.88662,3.0528 -12.16149,6.94515 -11.55474,8.52632 0.29251,0.76226 0.12661,1.1355 -0.36865,0.82941 -0.49527,-0.3061 -2.0394,1.48119 -3.4314,3.97175 -2.63962,4.7228 -2.27667,4.78632 3.10468,0.54332 1.78745,-1.40933 3.58745,-2.60128 4,-2.64879 0.41256,-0.0475 1.42511,-0.33361 2.25011,-0.63579 C 322.30493,202.83472 327.8066,202 335.30881,202 c 6.83038,0 10.06466,0.54744 15.88398,2.68857 13.63312,5.01607 25.40385,13.06469 32.81125,22.43575 4.50875,5.704 12.36956,21.41448 13.35288,26.68685 0.60115,3.22324 0.46924,3.37907 -4.9676,5.86813 -4.54245,2.0796 -7.24616,2.58158 -14.48236,2.68883 -4.89347,0.0725 -8.89385,0.35687 -8.88973,0.63187 0.008,0.50258 12.05647,9.50435 15.59046,11.64765 1.74747,1.05981 1.47135,1.55731 -3.60769,6.5 -6.58152,6.40483 -15.35582,11.25305 -24.09307,13.31257 -7.3309,1.72801 -19.79772,2.00508 -24.86241,0.55255 -4.24221,-1.21665 -4.12895,-1.37735 -8.09583,11.48723 -7.39375,23.9779 -13.77908,38.48137 -22.29036,50.62978 -6.72293,9.59585 -20.92578,24.22757 -36.54195,37.64542 -50.99448,43.81584 -74.01311,70.68885 -95.78403,111.82266 -15.45344,29.19762 -25.97733,66.2892 -29.41543,103.675 -1.14054,12.40222 -0.77251,46.50036 0.59608,55.22714 5.3893,34.36478 15.80176,53.10451 37.11506,66.79756 14.07007,9.03951 30.62472,13.62355 58.62194,16.2326 6.34175,0.59098 6.75,0.77842 6.75,3.09909 0,1.35854 -0.63487,3.69776 -1.41081,5.19828 -0.77595,1.50051 -1.5478,4.95588 -1.71524,7.6786 l -0.30442,4.95039 3.96523,0.66192 c 2.18088,0.36406 8.91524,0.97306 14.96524,1.35332 13.19654,0.82946 15.04672,1.00585 42.5,4.05174 9.88285,1.09648 42.98945,7.13734 46.21665,8.433 1.25584,0.5042 2.95835,0.91673 3.78335,0.91673 0.825,0 0.4875,-0.40698 -0.75,-0.90439 z M 521.64007,306.42422 c -6.44216,-2.0531 -13.72842,-9.30045 -15.97287,-15.88754 -6.53286,-19.17288 7.5751,-36.03658 26.37476,-31.52661 7.29588,1.75025 12.80391,6.35117 16.80255,14.03537 3.12091,5.99747 3.32652,6.97234 2.90337,13.76605 -0.37501,6.0209 -0.96825,8.04118 -3.36079,11.44536 -5.47093,7.78418 -16.95046,11.28953 -26.74702,8.16737 z M 540.8,281.8 c 2.59685,-2.59685 0.0407,-8.8 -3.62625,-8.8 -2.02673,0 -5.17375,2.93564 -5.17375,4.82625 0,3.96973 6.0652,6.70855 8.8,3.97375 z M 336,725.49629 c 3.025,-0.93019 9.45539,-3.74915 14.35742,-6.12707 7.74249,-3.7558 7.52124,-3.7317 14.47677,-8.26282 2.68459,-1.7227 8.37565,-6.35495 13.15432,-9.59742 6.31914,-4.28773 8.32062,-6.27292 13.74238,-12.1122 6.47529,-6.38933 6.51332,-6.71275 1.79194,-15.23998 -6.6146,-11.94658 -8.13489,-14.20563 -9.02008,-13.40321 -0.45287,0.41053 -0.53721,0.2446 -0.18742,-0.36871 0.54772,-0.96037 -13.34548,-32.65455 -15.15919,-34.58226 -0.36088,-0.38356 -0.63396,2.76644 -0.60684,7 0.0689,10.76508 -3.37981,31.61654 -6.56579,39.69738 -0.43369,1.1 -1.80795,4.7 -3.05391,8 -5.59714,14.8244 -13.51077,26.94416 -26.27371,40.23834 -6.63091,6.90691 -7.45094,8.10318 -5.03797,7.34946 1.58514,-0.49513 5.35708,-1.66131 8.38208,-2.59151 z M 601.5,556.61684 c 29.96471,-5.70483 51.33858,-16.61214 84.49142,-43.11684 5.31779,-4.25142 25.80555,-25.42376 31.67968,-32.73823 l 6.17111,-7.68427 -3.92111,-3.9211 c -3.90841,-3.90841 -4.47369,-5.7805 -3.97266,-13.1564 0.25591,-3.76741 3.00483,-9.16038 4.264,-8.3687 3.27787,2.06092 2.99056,-0.19615 1.28055,-1.18221 -1.95197,-1.12558 6.78047,-9.17637 11.60971,-10.47674 3.91132,-1.05321 13.54551,-1.33418 18.99417,-0.55395 5.51634,0.78993 10.30515,4.46568 14.90313,11.43922 l 1.5,2.27498 0.13157,-2.3163 c 0.0724,-1.27396 0.46913,-5.2917 0.88172,-8.92831 l 0.75015,-6.612 -5.38172,-2.59408 c -9.13674,-4.40405 -14.03165,-5.19016 -20.05339,-3.22055 -9.35722,3.06059 -13.28163,5.44978 -24.87619,15.14467 -11.51035,9.62448 -25.79839,20.83384 -29.47617,23.12487 -6.61095,4.11822 -21.51749,10.5501 -30.97597,13.36554 -9.4781,2.82128 -12.5219,3.27758 -22,3.29809 -16.17593,0.035 -25.51534,-1.13169 -35.69909,-4.45959 -12.68306,-4.14463 -18.46061,-7.49493 -32.72959,-18.97929 -6.83577,-5.50176 -12.87145,-9.85561 -13.41262,-9.67522 -1.15217,0.38406 -1.2008,0.65446 -2.10199,11.6874 -0.37905,4.64063 -0.85053,8.69856 -1.04772,9.01763 -0.19719,0.31906 -0.61972,2.81536 -0.93894,5.54733 -2.18417,18.69239 -12.53792,57.8153 -20.00454,75.58955 -0.49026,1.16708 -0.0338,1.77263 1.62649,2.15793 1.2694,0.29459 5.683,1.53698 9.808,2.76089 4.125,1.2239 10.65,2.80368 14.5,3.51062 8.91314,1.63663 33.20382,1.12049 44,-0.93494 z m 138.85616,-76.33026 c -0.62911,-0.21036 -0.9283,-1.3734 -0.66487,-2.58453 0.45901,-2.11021 0.39294,-2.09778 -1.58392,0.29795 -2.73392,3.3132 -2.6314,3.82304 0.64263,3.19585 1.5125,-0.28974 2.23527,-0.69892 1.60616,-0.90927 z m 17.5207,-10.22196 c 2.53924,-5.90263 2.62544,-9.47689 0.33122,-13.73447 -2.68927,-4.99072 -6.62757,-7.49768 -12.39478,-7.88998 -5.91161,-0.40213 -10.85316,1.35095 -13.18261,4.6767 -2.48827,3.55251 -2.03848,4.52914 1.8755,4.0722 9.24621,-1.07944 15.06303,2.8263 17.96232,12.06093 0.9929,3.1625 2.13825,5.75 2.54524,5.75 0.40698,0 1.69538,-2.22092 2.86311,-4.93538 z"
       id="path1"
       sodipodi:nodetypes="sssssssssssscssssssscsssssssssssssssssssssssssssssssscccssssssssssssssssscssscssssscssssssssssssscssssssssssssssssssssssscsscssssssssssssssssssssssssssssssssssssssssssssssssssssssscsssssssssssssssssssssssssssssscssssssssssssscssssssssssssssssssscssssssssssssssscsssssssssssssssssssssssssssssssssssscssssssscsscssssssssssssssssssssssssssssss" />
    <path
       style="fill:#e29a8b;fill-opacity:1;stroke-width:5"
       d="m 694.8263,307.15084 c -13.95339,3.65546 -10.90158,28.46867 3.79624,27.8611 13.98885,0.16031 18.10639,-20.67607 6.45456,-27.29475 -3.05244,-1.83045 -7.13435,-2.69677 -10.2508,-0.56635 z"
       id="path9" />
    <path
       style="fill:#ffffff;fill-opacity:1;stroke-width:4.63904"
       d="m 756.63811,406.46395 c 0,0 6.29084,-1.95529 12.97486,1.95528 6.68401,3.91057 12.18851,7.82113 12.18851,7.82113 l 84.14001,-38.32354 c 0,0 4.32495,0 4.71813,-2.34634 0.39317,-2.34634 -34.20646,-65.30645 -38.13823,-71.56336 -3.93178,-6.2569 -30.27468,-55.13898 -30.27468,-55.13898 l -2.75225,-3.51951 c 0,0 -3.93177,0.78211 -5.1113,2.7374 -1.17954,1.95528 -14.94075,66.87067 -16.90664,76.64709 -1.96589,9.77641 -20.83841,81.73083 -20.83841,81.73083 z"
       id="path10" />
  </g>
</svg>
